<?xml version="1.0" encoding="iso-8859-1"?>
<!-- Uploaded to: SVG Repo, www.svgrepo.com, Generator: SVG Repo Mixer Tools -->
<svg fill="#000000" height="800px" width="800px" version="1.1" id="Layer_1" xmlns="http://www.w3.org/2000/svg" xmlns:xlink="http://www.w3.org/1999/xlink" 
	 viewBox="0 0 512 512" xml:space="preserve">
<g>
	<g>
		<path d="M413.04,435.593c-1.669-2.891-77.637-134.464-82.277-142.501V160.282h8.229c9.864,0,17.86-7.997,17.86-17.86
			c0-9.864-7.997-17.86-17.86-17.86c-6.187,0-160.529,0-165.986,0c-9.864,0-17.86,7.997-17.86,17.86
			c0,9.864,7.997,17.86,17.86,17.86h8.229c0,12.643,0,119.858,0,132.809c-3.871,6.704-78.243,135.516-82.278,142.504
			C79.355,469.553,103.826,512,143.073,512h225.851C408.138,512,432.66,469.584,413.04,435.593z M213.259,446.66
			c-8.549,0-15.48-6.931-15.48-15.48s6.931-15.48,15.48-15.48c8.549,0,15.48,6.931,15.48,15.48
			C228.739,439.729,221.808,446.66,213.259,446.66z M284.178,461.22c-16.591,0-30.041-13.45-30.041-30.041
			s13.45-30.041,30.041-30.041s30.041,13.45,30.041,30.041C314.22,447.771,300.77,461.22,284.178,461.22z M271.639,345.802
			c-2.29-14.836-15.15-26.231-30.62-26.231h-33.825c7.793-13.498,9.763-15.682,9.763-21.695V266.67h23.691
			c9.864,0,17.86-7.997,17.86-17.86c0-9.864-7.997-17.86-17.86-17.86h-23.691v-17.474h23.691c9.864,0,17.86-7.997,17.86-17.86
			c0-9.864-7.997-17.86-17.86-17.86h-23.691v-17.472h78.086v137.595c0,6.376,0.476,5.612,24.907,47.926H271.639z"/>
	</g>
</g>
<g>
	<g>
		<path d="M222.924,0c-9.864,0-17.86,7.997-17.86,17.86v55.651c0,9.864,7.997,17.86,17.86,17.86c9.864,0,17.86-7.997,17.86-17.86
			V17.86C240.784,7.997,232.787,0,222.924,0z"/>
	</g>
</g>
<g>
	<g>
		<path d="M289.074,0c-9.864,0-17.86,7.997-17.86,17.86v55.651c0,9.864,7.997,17.86,17.86,17.86c9.864,0,17.86-7.997,17.86-17.86
			V17.86C306.934,7.997,298.938,0,289.074,0z"/>
	</g>
</g>
</svg>